<svg aria-hidden="true" style="position:absolute;width:0;height:0" xmlns="http://www.w3.org/2000/svg" overflow="hidden">
    <defs>

<symbol id="bg-logo" width="106" height="90" viewBox="0 0 106 90">
<path d="M-0.5 89.9999C13.4858 89.9999 27.3346 87.672 40.2558 83.1491C53.177 78.6262 64.9174 71.9968 74.8069 63.6395C84.6963 55.2823 92.541 45.3607 97.8932 34.4414C103.245 23.5221 106 11.8189 106 -5.34058e-05L-0.499996 -4.28235e-05L-0.5 89.9999Z" fill="url(#paint0_linear_12712_449)" fill-opacity="0.03"/>
<path d="M38.4176 38.5952C37.8619 37.3064 36.7183 36.6619 34.9868 36.6617H34.4406V44.6109H34.9868C36.3251 44.6109 37.3129 44.1709 37.9501 43.2907C38.487 42.5395 38.7555 41.5836 38.7555 40.423C38.7542 39.7326 38.6416 39.1234 38.4176 38.5952Z" fill="white"/>
<path d="M29.0417 38.6905C29.598 39.9793 30.7414 40.6236 32.4719 40.6236H33.0182V32.6744H32.4719C31.1337 32.6744 30.1459 33.1145 29.5086 33.9946C28.9733 34.7456 28.7055 35.7015 28.7052 36.8623C28.7052 37.5519 28.8174 38.1613 29.0417 38.6905Z" fill="white"/>
<path d="M19.9496 19.9793H27.2192V22.0846H22.5592V23.1373H26.4306V25.135H22.5592V26.1996H27.2192V28.3049H19.9496V19.9793Z" fill="white"/>
<path d="M30.875 19.9689H40.281L35.578 28.474L30.875 19.9689ZM35.578 27.4213L39.4637 20.4115H31.7066L35.578 27.4213Z" fill="white"/>
<path d="M44.0377 19.9789H51.3073V22.0842H46.6473V23.1369H50.5187V25.1345H46.6473V26.1992H51.3073V28.3045H44.0377V19.9789Z" fill="white"/>
<path d="M55.781 28.2926V19.9689H56.3402L63.3087 25.627V19.9689H63.8392V28.2946L55.781 28.2926Z" fill="white"/>
<path d="M71.4529 28.3045V22.0842H67.6819V19.9789H75.7401V22.0842H71.9691V28.3045H71.4529Z" fill="white"/>
<path d="M24.2364 34.3334C24.8673 34.3334 25.3691 34.4132 25.7419 34.5727C26.1702 34.747 26.53 35.0197 26.7789 35.3588C27.0278 35.6978 27.1556 36.0891 27.1471 36.4866C27.1497 36.8698 27.0203 37.2456 26.7743 37.5692C26.5243 37.9011 26.1729 38.1715 25.7563 38.3527C26.2736 38.5049 26.7269 38.7792 27.0611 39.1422C27.4079 39.5012 27.5953 39.9492 27.5916 40.4102C27.5952 40.8131 27.4636 41.2089 27.2116 41.5526C26.9651 41.894 26.6169 42.1763 26.2007 42.372C25.9798 42.471 25.7433 42.5434 25.4982 42.5873C25.2401 42.6352 24.896 42.6591 24.4658 42.6591H20.0496V34.3334H24.2364Z" fill="white"/>
<path d="M41.0482 42.055C40.2978 41.5087 39.9274 40.6893 39.9369 39.5968H42.2741C42.2646 40.0513 42.4271 40.3982 42.7616 40.6375C43.0962 40.8767 43.5646 40.9963 44.1668 40.9963C44.6639 40.9963 45.0558 40.9286 45.3425 40.793C45.6293 40.6574 45.7727 40.4501 45.7727 40.171C45.7727 39.9397 45.6269 39.7722 45.3354 39.6686C45.0569 39.5682 44.766 39.494 44.4679 39.4473C44.1811 39.4034 44.0043 39.3768 43.9374 39.3675C43.2878 39.2673 42.6497 39.1205 42.0304 38.9289C41.5104 38.7676 41.047 38.5003 40.6825 38.1514C40.3193 37.8005 40.1377 37.3379 40.1377 36.7637C40.1377 36.1896 40.3193 35.7011 40.6825 35.2984C41.0458 34.8957 41.5309 34.5946 42.1379 34.3952C42.7713 34.1918 43.4451 34.0904 44.1238 34.0962C44.9936 34.0962 45.7464 34.2318 46.3821 34.5029C47.0177 34.774 47.5172 35.1847 47.8804 35.735C48.049 35.9677 48.1611 36.2258 48.2102 36.4946C48.2479 36.7305 48.267 36.9683 48.2676 37.2063H45.9304C45.9304 36.7757 45.7918 36.4587 45.5146 36.2554C45.2374 36.052 44.8072 35.9503 44.2241 35.9503C43.7558 35.9503 43.3925 36.0181 43.1344 36.1537C42.8763 36.2892 42.7473 36.4727 42.7473 36.7039C42.7473 36.9591 42.9193 37.1465 43.2635 37.2662C43.6862 37.4055 44.1228 37.5136 44.5683 37.5891C45.4286 37.7327 46.1001 37.8702 46.5828 38.0018C47.0695 38.1357 47.5032 38.3776 47.8374 38.7016C48.1911 39.0366 48.3679 39.5071 48.3679 40.1131C48.3679 40.6873 48.1768 41.1818 47.7944 41.5965C47.4121 42.0111 46.9078 42.3281 46.2817 42.5474C45.6387 42.7695 44.9487 42.8814 44.2528 42.8764C42.8668 42.8751 41.7986 42.6013 41.0482 42.055Z" fill="white"/>
<path d="M54.2466 42.6591V36.4388H50.4756V34.3334H58.5338V36.4388H54.7628V42.6591H54.2466Z" fill="white"/>
<path d="M61.2439 34.3334H68.5135V36.4388H63.8535V37.4914H67.7249V39.4891H63.8535V40.5537H68.5135V42.6591H61.2439V34.3334Z" fill="white"/>
<path d="M79.2812 42.6591H71.6101V34.3334H75.4958C76.3275 34.3334 77.0061 34.457 77.5319 34.7043C78.0342 34.9322 78.4511 35.2717 78.7363 35.6852C79.0242 36.1035 79.1728 36.5785 79.1665 37.0608C79.1732 37.6664 78.9302 38.2556 78.4782 38.7295C78.045 39.2056 77.4349 39.5484 76.7433 39.7044L79.2812 42.6591ZM72.1406 35.0631V39.3575H75.8256L72.1406 35.0631ZM72.1406 42.2165H78.2775L76.1841 39.7882L75.7396 39.8001H72.1406V42.2165ZM72.5134 34.776L76.4135 39.3216C77.0397 39.2172 77.6025 38.9338 78.005 38.5202C78.419 38.1129 78.643 37.5948 78.6359 37.0608C78.6417 36.6399 78.5077 36.2259 78.2488 35.8646C77.991 35.5059 77.6119 35.2187 77.1591 35.0392C76.7385 34.8638 76.1888 34.776 75.5102 34.776H72.5134Z" fill="white"/>
</symbol>

<!--BOOSTER ICONS
<symbol id="icon-e" width="17" height="24" viewBox="0 0 17 24">
<path d="M-6.10352e-05 0.240417H16.6977V6.21254H5.99402V9.1986H14.8863V14.8653H5.99402V17.8853H16.6977V23.8574H-6.10352e-05V0.240417Z" fill="white"/>
</symbol>

<symbol id="icon-v" width="22" height="25" viewBox="0 0 22 25">
<path d="M0.0950317 0.212097H21.7001L10.8975 24.3381L0.0950317 0.212097ZM10.8975 21.3521L19.8228 1.4676H2.00523L10.8975 21.3521Z" fill="white"/>
</symbol>

<symbol id="icon-e2" width="22" width="18" height="24" viewBox="0 0 18 24">
<path d="M0.328888 0.240417H17.0267V6.21254H6.32297V9.1986H15.2153V14.8653H6.32297V17.8853H17.0267V23.8574H0.328888V0.240417Z" fill="white"/>
</symbol>

<symbol id="icon-n" width="19" height="24" viewBox="0 0 19 24">
<path d="M0.302216 23.8235V0.212097H1.58666L17.5928 16.2622V0.212097H18.8114V23.8291L0.302216 23.8235Z" fill="white"/>
</symbol>

<symbol id="icon-t" width="20" height="24" viewBox="0 0 20 24" fill="none">
<path d="M9.29962 23.8574V6.21254H0.637848V0.240417H19.147V6.21254H10.4853V23.8574H9.29962Z" fill="white"/>
</symbol>

<symbol id="icon-b" width="18" height="25" viewBox="0 0 18 25">
<path d="M9.84624 0.959473C11.2954 0.959473 12.4481 1.18569 13.3044 1.63812C14.2882 2.13262 15.1146 2.90622 15.6863 3.86797C16.2581 4.82973 16.5514 5.93967 16.5319 7.06732C16.5379 8.15433 16.2407 9.22024 15.6756 10.1382C15.1014 11.0797 14.2943 11.8468 13.3373 12.3608C14.5257 12.7926 15.5668 13.5706 16.3343 14.6003C17.1309 15.6186 17.5614 16.8893 17.5529 18.1972C17.5613 19.3401 17.259 20.4627 16.6801 21.4377C16.114 22.4061 15.3141 23.2069 14.3583 23.7621C13.8509 24.0428 13.3076 24.2485 12.7445 24.3729C12.1517 24.5086 11.3612 24.5765 10.3732 24.5765H0.22937V0.959473H9.84624Z" fill="white"/>
</symbol>

<symbol id="icon-o" width="11" height="23" viewBox="0 0 11 23">
<path d="M0.883761 17.3189C2.16162 20.9745 4.78796 22.8023 8.76279 22.8023H10.0176V0.253052H8.76279C5.6889 0.253052 3.42008 1.50139 1.95633 3.99807C0.726776 6.12828 0.111633 8.83987 0.110901 12.1328C0.110901 14.0889 0.368519 15.8175 0.883761 17.3189Z" fill="white"/>
</symbol>

<symbol id="icon-o" width="11" height="24" viewBox="0 0 11 24">
<path d="M9.41966 6.04853C8.14326 2.39287 5.51655 0.564658 1.53953 0.563904H0.284729V23.1132H1.53953C4.61342 23.1132 6.88224 21.8649 8.34599 19.3682C9.57921 17.2372 10.1958 14.5256 10.1958 11.2334C10.1929 9.27513 9.93417 7.54684 9.41966 6.04853Z" fill="white"/>
</symbol>

<symbol id="icon-s" width="21" height="26" viewBox="0 0 21 26">
<path d="M3.46205 22.8629C1.73848 21.3134 0.887668 18.989 0.909624 15.8898H6.27795C6.25599 17.1792 6.62924 18.1633 7.39771 18.8419C8.16619 19.5206 9.24205 19.8599 10.6253 19.8599C11.767 19.8599 12.6672 19.6676 13.3259 19.2831C13.9846 18.8985 14.314 18.3103 14.314 17.5186C14.314 16.8625 13.9791 16.3875 13.3095 16.0934C12.6699 15.8088 12.0016 15.5982 11.3169 15.4657C10.6582 15.3412 10.252 15.2658 10.0983 15.2394C8.60628 14.9551 7.14076 14.5388 5.71806 13.9952C4.52366 13.5377 3.45939 12.7794 2.62221 11.7896C1.78787 10.7943 1.37071 9.48221 1.37071 7.85345C1.37071 6.22469 1.78787 4.83912 2.62221 3.69672C3.45655 2.55433 4.57084 1.70036 5.96507 1.13481C7.41991 0.557819 8.96766 0.269975 10.5265 0.286501C12.5245 0.286501 14.2536 0.671071 15.7137 1.44021C17.1738 2.20935 18.321 3.37436 19.1553 4.93526C19.5425 5.59538 19.7999 6.3275 19.9128 7.08997C19.9993 7.75929 20.0433 8.43373 20.0446 9.10896H14.6762C14.6762 7.88739 14.3579 6.98817 13.7211 6.41132C13.0844 5.83446 12.0964 5.54604 10.757 5.54604C9.68118 5.54604 8.84684 5.73833 8.25402 6.1229C7.6612 6.50747 7.36478 7.02776 7.36478 7.68379C7.36478 8.40768 7.75999 8.9393 8.55042 9.27863C9.52143 9.67398 10.5243 9.98055 11.5475 10.1948C13.5235 10.602 15.066 10.9922 16.1748 11.3655C17.2926 11.7451 18.2888 12.4314 19.0565 13.3505C19.8689 14.3006 20.2751 15.6353 20.2751 17.3546C20.2751 18.9833 19.836 20.3859 18.9577 21.5622C18.0795 22.7385 16.9213 23.6377 15.4831 24.2598C14.0062 24.8898 12.4213 25.2071 10.8229 25.193C7.63924 25.1892 5.18562 24.4125 3.46205 22.8629Z" fill="white"/>
</symbol>

<symbol id="icon-t" width="19" height="25" viewBox="0 0 19 25">
<path d="M8.77826 24.5765V6.9316H0.116486V0.959473H18.6257V6.9316H9.96389V24.5765H8.77826Z" fill="white"/>
</symbol>

<symbol id="icon-e" width="18" height="25" viewBox="0 0 18 25">
<path d="M-6.10352e-05 0.240417H16.6977V6.21254H5.99402V9.1986H14.8863V14.8653H5.99402V17.8853H16.6977V23.8574H-6.10352e-05V0.240417Z" fill="white"/>
</symbol>

<symbol id="icon-r" width="19" height="25" viewBox="0 0 19 25">
<path d="M18.2807 24.5765H0.660797V0.959473H9.58605C11.4962 0.959473 13.0551 1.31011 14.2627 2.01138C15.4165 2.65796 16.3741 3.62102 17.0292 4.79385C17.6906 5.98048 18.0317 7.32781 18.0173 8.69608C18.0328 10.414 17.4747 12.0853 16.4364 13.4297C15.4414 14.7801 14.0399 15.7526 12.4513 16.1952L18.2807 24.5765ZM1.87938 3.02935V15.2111H10.3435L1.87938 3.02935ZM1.87938 23.321H15.9753L11.1669 16.4327L10.1459 16.4666H1.87938V23.321ZM2.73567 2.21497L11.6938 15.1093C13.1321 14.813 14.425 14.009 15.3496 12.8358C16.3004 11.6806 16.8149 10.2107 16.7987 8.69608C16.8119 7.50212 16.5042 6.32768 15.9095 5.30283C15.3173 4.28535 14.4465 3.4708 13.4065 2.96149C12.4404 2.46381 11.1779 2.21497 9.61899 2.21497H2.73567Z" fill="white"/>
</symbol> -->

<!--SEARCH ICON-->

<symbol id="search-icon" width="12" height="12" viewBox="0 0 12 12">
<path d="M1.50899 1.50905C2.48211 0.535922 3.77593 0 5.15211 0C6.52829 0 7.82211 0.535922 8.79521 1.50905C9.76831 2.48215 10.3043 3.77597 10.3043 5.15213C10.3043 6.41032 9.85604 7.59949 9.03554 8.53786L11.8969 11.3992C12.0343 11.5366 12.0343 11.7595 11.8969 11.8969C11.8281 11.9656 11.7381 12 11.648 12C11.558 12 11.4679 11.9656 11.3992 11.8969L8.53785 9.03558C7.59948 9.85606 6.41031 10.3043 5.15211 10.3043C3.77591 10.3043 2.48213 9.76838 1.50901 8.79525C0.535907 7.82215 -1.43051e-05 6.52833 -1.43051e-05 5.15215C-1.43051e-05 3.77597 0.535884 2.48215 1.50899 1.50905ZM2.0067 8.29755C3.7411 10.0319 6.5631 10.0319 8.29749 8.29755C10.0319 6.56318 10.0319 3.74114 8.29749 2.00677C7.43021 1.13948 6.29134 0.705984 5.15209 0.705984C4.01312 0.705984 2.87377 1.1397 2.00668 2.00677C0.272352 3.74112 0.272352 6.56316 2.0067 8.29755Z" fill="#939393"/>
</symbol>

<symbol id="drop-down-icon" width="13" height="8" viewBox="0 0 13 8">
<path d="M6.5 8L0.00480968 0.5L12.9952 0.499999L6.5 8Z" fill="#939393"/>
</symbol>

</defs>
</svg>