<svg width="106" height="90" viewBox="0 0 106 90" fill="none" xmlns="http://www.w3.org/2000/svg">
<g id="logo">
<g id="bg logo" filter="url(#filter0_b_12712_449)">
<path d="M-0.5 89.9999C13.4858 89.9999 27.3346 87.672 40.2558 83.1491C53.177 78.6262 64.9174 71.9968 74.8069 63.6395C84.6963 55.2823 92.541 45.3607 97.8932 34.4414C103.245 23.5221 106 11.8189 106 -5.34058e-05L-0.499996 -4.28235e-05L-0.5 89.9999Z" fill="url(#paint0_linear_12712_449)" fill-opacity="0.03"/>
</g>
<path id="Vector" d="M38.4176 38.5952C37.8619 37.3064 36.7183 36.6619 34.9868 36.6617H34.4406V44.6109H34.9868C36.3251 44.6109 37.3129 44.1709 37.9501 43.2907C38.487 42.5395 38.7555 41.5836 38.7555 40.423C38.7542 39.7326 38.6416 39.1234 38.4176 38.5952Z" fill="white"/>
<path id="Vector_2" d="M29.0417 38.6905C29.598 39.9793 30.7414 40.6236 32.4719 40.6236H33.0182V32.6744H32.4719C31.1337 32.6744 30.1459 33.1145 29.5086 33.9946C28.9733 34.7456 28.7055 35.7015 28.7052 36.8623C28.7052 37.5519 28.8174 38.1613 29.0417 38.6905Z" fill="white"/>
<path id="Vector_3" d="M19.9496 19.9793H27.2192V22.0846H22.5592V23.1373H26.4306V25.135H22.5592V26.1996H27.2192V28.3049H19.9496V19.9793Z" fill="white"/>
<path id="Vector_4" d="M30.875 19.9689H40.281L35.578 28.474L30.875 19.9689ZM35.578 27.4213L39.4637 20.4115H31.7066L35.578 27.4213Z" fill="white"/>
<path id="Vector_5" d="M44.0377 19.9789H51.3073V22.0842H46.6473V23.1369H50.5187V25.1345H46.6473V26.1992H51.3073V28.3045H44.0377V19.9789Z" fill="white"/>
<path id="Vector_6" d="M55.781 28.2926V19.9689H56.3402L63.3087 25.627V19.9689H63.8392V28.2946L55.781 28.2926Z" fill="white"/>
<path id="Vector_7" d="M71.4529 28.3045V22.0842H67.6819V19.9789H75.7401V22.0842H71.9691V28.3045H71.4529Z" fill="white"/>
<path id="Vector_8" d="M24.2364 34.3334C24.8673 34.3334 25.3691 34.4132 25.7419 34.5727C26.1702 34.747 26.53 35.0197 26.7789 35.3588C27.0278 35.6978 27.1556 36.0891 27.1471 36.4866C27.1497 36.8698 27.0203 37.2456 26.7743 37.5692C26.5243 37.9011 26.1729 38.1715 25.7563 38.3527C26.2736 38.5049 26.7269 38.7792 27.0611 39.1422C27.4079 39.5012 27.5953 39.9492 27.5916 40.4102C27.5952 40.8131 27.4636 41.2089 27.2116 41.5526C26.9651 41.894 26.6169 42.1763 26.2007 42.372C25.9798 42.471 25.7433 42.5434 25.4982 42.5873C25.2401 42.6352 24.896 42.6591 24.4658 42.6591H20.0496V34.3334H24.2364Z" fill="white"/>
<path id="Vector_9" d="M41.0482 42.055C40.2978 41.5087 39.9274 40.6893 39.9369 39.5968H42.2741C42.2646 40.0513 42.4271 40.3982 42.7616 40.6375C43.0962 40.8767 43.5646 40.9963 44.1668 40.9963C44.6639 40.9963 45.0558 40.9286 45.3425 40.793C45.6293 40.6574 45.7727 40.4501 45.7727 40.171C45.7727 39.9397 45.6269 39.7722 45.3354 39.6686C45.0569 39.5682 44.766 39.494 44.4679 39.4473C44.1811 39.4034 44.0043 39.3768 43.9374 39.3675C43.2878 39.2673 42.6497 39.1205 42.0304 38.9289C41.5104 38.7676 41.047 38.5003 40.6825 38.1514C40.3193 37.8005 40.1377 37.3379 40.1377 36.7637C40.1377 36.1896 40.3193 35.7011 40.6825 35.2984C41.0458 34.8957 41.5309 34.5946 42.1379 34.3952C42.7713 34.1918 43.4451 34.0904 44.1238 34.0962C44.9936 34.0962 45.7464 34.2318 46.3821 34.5029C47.0177 34.774 47.5172 35.1847 47.8804 35.735C48.049 35.9677 48.1611 36.2258 48.2102 36.4946C48.2479 36.7305 48.267 36.9683 48.2676 37.2063H45.9304C45.9304 36.7757 45.7918 36.4587 45.5146 36.2554C45.2374 36.052 44.8072 35.9503 44.2241 35.9503C43.7558 35.9503 43.3925 36.0181 43.1344 36.1537C42.8763 36.2892 42.7473 36.4727 42.7473 36.7039C42.7473 36.9591 42.9193 37.1465 43.2635 37.2662C43.6862 37.4055 44.1228 37.5136 44.5683 37.5891C45.4286 37.7327 46.1001 37.8702 46.5828 38.0018C47.0695 38.1357 47.5032 38.3776 47.8374 38.7016C48.1911 39.0366 48.3679 39.5071 48.3679 40.1131C48.3679 40.6873 48.1768 41.1818 47.7944 41.5965C47.4121 42.0111 46.9078 42.3281 46.2817 42.5474C45.6387 42.7695 44.9487 42.8814 44.2528 42.8764C42.8668 42.8751 41.7986 42.6013 41.0482 42.055Z" fill="white"/>
<path id="Vector_10" d="M54.2466 42.6591V36.4388H50.4756V34.3334H58.5338V36.4388H54.7628V42.6591H54.2466Z" fill="white"/>
<path id="Vector_11" d="M61.2439 34.3334H68.5135V36.4388H63.8535V37.4914H67.7249V39.4891H63.8535V40.5537H68.5135V42.6591H61.2439V34.3334Z" fill="white"/>
<path id="Vector_12" d="M79.2812 42.6591H71.6101V34.3334H75.4958C76.3275 34.3334 77.0061 34.457 77.5319 34.7043C78.0342 34.9322 78.4511 35.2717 78.7363 35.6852C79.0242 36.1035 79.1728 36.5785 79.1665 37.0608C79.1732 37.6664 78.9302 38.2556 78.4782 38.7295C78.045 39.2056 77.4349 39.5484 76.7433 39.7044L79.2812 42.6591ZM72.1406 35.0631V39.3575H75.8256L72.1406 35.0631ZM72.1406 42.2165H78.2775L76.1841 39.7882L75.7396 39.8001H72.1406V42.2165ZM72.5134 34.776L76.4135 39.3216C77.0397 39.2172 77.6025 38.9338 78.005 38.5202C78.419 38.1129 78.643 37.5948 78.6359 37.0608C78.6417 36.6399 78.5077 36.2259 78.2488 35.8646C77.991 35.5059 77.6119 35.2187 77.1591 35.0392C76.7385 34.8638 76.1888 34.776 75.5102 34.776H72.5134Z" fill="white"/>
</g>
<defs>
<filter id="filter0_b_12712_449" x="-30.5" y="-30.0001" width="166.5" height="150" filterUnits="userSpaceOnUse" color-interpolation-filters="sRGB">
<feFlood flood-opacity="0" result="BackgroundImageFix"/>
<feGaussianBlur in="BackgroundImageFix" stdDeviation="15"/>
<feComposite in2="SourceAlpha" operator="in" result="effect1_backgroundBlur_12712_449"/>
<feBlend mode="normal" in="SourceGraphic" in2="effect1_backgroundBlur_12712_449" result="shape"/>
</filter>
<linearGradient id="paint0_linear_12712_449" x1="125.032" y1="-33.8784" x2="-23.3398" y2="135.267" gradientUnits="userSpaceOnUse">
<stop stop-color="#C4C4C4"/>
<stop offset="1" stop-color="#C4C4C4" stop-opacity="0"/>
</linearGradient>
</defs>
</svg>
